<svg version="1.1" id="Layer_1" xmlns="http://www.w3.org/2000/svg" xmlns:xlink="http://www.w3.org/1999/xlink" x="0px" y="0px"
	 width="100%" viewBox="0 0 666 666" enable-background="new 0 0 666 666" xml:space="preserve">
<path fill="#1A2A36" opacity="1.000000" stroke="none" 
	d="
M387.000000,667.000000 
	C258.000000,667.000000 129.500000,667.000000 1.000000,667.000000 
	C1.000000,445.000000 1.000000,223.000000 1.000000,1.000000 
	C223.000000,1.000000 445.000000,1.000000 667.000000,1.000000 
	C667.000000,223.000000 667.000000,445.000000 667.000000,667.000000 
	C573.833313,667.000000 480.666656,667.000000 387.000000,667.000000 
M411.798584,100.959785 
	C417.861908,103.366898 423.997925,104.052132 430.342224,102.020164 
	C433.204803,101.103333 434.206543,99.830864 433.335846,96.566780 
	C430.702942,86.696640 423.894012,80.707054 415.297089,76.365845 
	C404.139709,70.731689 392.008575,68.621330 379.758514,66.973244 
	C362.974640,64.715164 347.205872,60.275986 335.821716,45.823223 
	C336.331757,51.296829 336.691406,56.871933 338.787872,61.691547 
	C340.862854,66.461823 344.690399,70.469757 347.677277,74.709984 
	C327.780609,82.271919 315.571686,93.221474 309.209686,110.996773 
	C298.315033,141.436310 300.926331,180.859436 333.063080,206.774414 
	C351.653534,221.765732 372.102753,234.516663 392.140015,247.626999 
	C405.875946,256.614380 419.548553,265.445648 428.921326,279.339844 
	C444.541809,302.495575 445.423889,328.123260 440.440674,354.320404 
	C434.375854,386.203644 414.565216,407.578552 386.371246,421.978455 
	C370.750916,429.956451 354.102020,434.781708 336.690552,437.795837 
	C338.253418,438.804932 339.864716,439.447296 341.513763,439.970703 
	C363.429901,446.927277 385.825500,449.613800 408.584106,445.893829 
	C448.212982,439.416321 478.359528,419.524597 494.715576,381.853119 
	C505.529816,356.945679 505.321411,330.850220 499.849854,304.793640 
	C492.755280,271.008087 475.689850,243.344315 447.029266,223.513626 
	C422.382874,206.460449 397.484314,189.772049 372.732727,172.870422 
	C365.586670,167.990753 360.929260,161.191528 358.424042,152.971207 
	C353.250946,135.996643 361.012695,122.628563 378.234222,118.754913 
	C380.169769,118.319550 382.171783,118.112785 384.155243,117.969109 
	C392.749725,117.346565 400.387726,120.247536 407.541748,124.862267 
	C411.109070,118.733055 412.746796,112.616882 411.578003,105.882149 
	C411.289734,104.220924 411.241791,102.517990 411.052704,100.908752 
	C411.052704,100.908752 411.011963,100.978279 411.798584,100.959785 
M599.244324,430.739746 
	C589.751770,438.253418 580.897705,446.812408 570.641907,453.076447 
	C544.325378,469.150116 514.767334,473.936615 484.491486,474.751312 
	C444.951019,475.815338 406.098175,469.964722 367.699310,461.271423 
	C333.491852,453.527069 299.222595,447.482147 263.931580,448.625977 
	C218.861725,450.086761 175.976089,460.159149 135.427704,479.919830 
	C128.472656,483.309265 121.793869,487.265533 114.987457,490.959930 
	C115.162552,491.389801 115.337639,491.819672 115.512733,492.249542 
	C116.963051,491.847839 118.430252,491.498260 119.860771,491.035339 
	C126.026024,489.040192 132.081726,486.608917 138.357162,485.069702 
	C158.578918,480.109741 179.179550,481.018616 199.491470,483.410065 
	C246.102646,488.897888 292.588837,495.442780 339.137085,501.471191 
	C370.647156,505.552002 402.086365,510.577942 433.721832,513.182800 
	C466.976440,515.920898 499.995361,512.397827 531.615295,500.842407 
	C580.656250,482.920502 613.017151,449.303772 626.426147,398.304291 
	C626.848572,396.697632 627.232910,395.073456 627.499756,393.435425 
	C627.766663,391.796478 627.863647,390.129791 628.035095,388.475281 
	C620.044861,403.630127 611.336548,417.886993 599.244324,430.739746 
M206.995941,445.416901 
	C224.311234,440.828094 241.815948,438.160797 259.923126,440.300262 
	C259.121765,439.307587 258.277740,438.655945 257.328949,438.247925 
	C201.753906,414.348022 172.342239,371.392883 165.996933,312.013519 
	C162.882812,282.871674 161.037460,253.593262 157.851181,224.460510 
	C155.290863,201.051071 150.117249,178.175415 139.499069,156.854736 
	C121.976555,121.670586 89.251083,103.331268 44.075016,106.768555 
	C46.329288,107.371529 47.909870,107.776077 49.480228,108.217018 
	C85.511810,118.334366 108.949806,140.906586 118.171135,177.589432 
	C122.701866,195.612854 121.844536,213.983475 121.674248,232.285141 
	C121.291359,273.437622 120.653122,314.599854 126.054443,355.530487 
	C128.917358,377.225342 133.466705,398.517212 143.741821,418.141693 
	C151.778976,433.491882 162.804092,445.831238 179.369583,452.191681 
	C181.550583,453.029144 184.501373,452.817291 186.823944,452.148285 
	C193.368286,450.263031 199.771011,447.886200 206.995941,445.416901 
M266.895416,324.628662 
	C270.317688,335.913910 272.888184,347.545197 277.308289,358.425049 
	C297.411957,407.909119 340.985016,412.462097 373.307159,400.923950 
	C398.968811,391.763397 414.020172,368.700714 411.995270,343.103363 
	C411.152435,332.449066 406.959839,323.155884 399.515381,314.648773 
	C398.945129,320.035645 398.728455,324.657013 397.933258,329.176605 
	C392.764465,358.555115 361.826569,374.739410 335.384949,361.838684 
	C323.124176,355.856689 316.285919,345.046631 311.240601,332.984192 
	C304.422699,316.683960 301.477295,299.450958 300.058899,281.972198 
	C298.470032,262.392761 298.038849,242.694199 295.776886,223.201462 
	C293.372711,202.483429 286.750092,182.949722 274.018005,165.980988 
	C260.189117,147.550476 236.014709,134.982651 216.049850,135.868484 
	C237.435165,151.314240 249.638107,172.635300 254.447372,197.719543 
	C257.436249,213.308990 257.991577,229.435211 258.766907,245.362976 
	C260.047241,271.664398 261.346069,297.927643 266.895416,324.628662 
M236.989639,294.356079 
	C234.981766,275.147461 233.480148,255.868881 230.837189,236.748062 
	C227.572342,213.128067 222.082443,190.006134 212.225861,168.093460 
	C199.719437,140.289734 179.665970,121.395233 149.454361,114.394432 
	C145.220551,113.413345 140.836105,113.082298 136.521378,112.450356 
	C152.110428,122.291855 162.237473,136.188065 170.037216,152.064758 
	C177.508774,167.273438 182.688965,183.357849 184.797256,200.066849 
	C187.858871,224.330963 189.613708,248.758713 192.009064,273.108459 
	C194.572525,299.166962 198.514038,324.969727 206.944168,349.887695 
	C213.470963,369.179718 222.394897,387.139740 237.209518,401.520050 
	C260.306549,423.939880 288.825439,428.985779 319.522614,426.506134 
	C325.295074,426.039886 331.024719,425.043610 336.774139,424.291931 
	C332.506531,422.674530 328.354919,422.297455 324.293274,421.475616 
	C292.612549,415.065308 271.526184,395.325623 257.077820,367.502869 
	C245.320892,344.862854 240.113647,320.344025 236.989639,294.356079 
M580.601257,342.879761 
	C577.993225,368.161896 569.895264,391.257660 552.871948,410.569794 
	C530.242126,436.242279 500.595673,448.708618 467.789917,454.973236 
	C462.549835,455.973877 457.243988,456.630219 451.968567,457.445740 
	C451.946136,457.853455 451.923676,458.261169 451.901245,458.668884 
	C453.197479,458.959930 454.479736,459.386658 455.792023,459.521881 
	C481.312164,462.151581 506.663544,461.765533 531.610901,454.966187 
	C561.000488,446.956146 580.902649,428.910614 589.806641,399.448273 
	C595.576416,380.356842 595.664124,360.984009 591.343994,341.679596 
	C589.055542,331.453705 585.591187,321.490997 582.657654,311.409454 
	C582.006897,311.537659 581.356140,311.665863 580.705383,311.794067 
	C580.705383,321.851074 580.705383,331.908081 580.601257,342.879761 
M280.621399,586.183472 
	C284.023651,576.807068 287.534882,567.468140 290.777222,558.036743 
	C292.170441,553.984131 293.771027,550.599243 298.791718,550.529297 
	C299.193909,550.523682 299.580505,549.402710 300.261902,548.360046 
	C292.863068,548.360046 286.069214,548.360046 279.275360,548.360046 
	C279.875214,549.923706 280.832977,550.708984 281.796814,550.716431 
	C286.265900,550.751038 286.891754,553.459839 285.766998,556.751282 
	C280.148987,573.191711 274.357483,589.572876 268.627014,605.974854 
	C261.875854,589.275146 256.156311,572.526062 250.570953,555.732422 
	C249.551865,552.668274 251.102646,551.041321 254.301453,550.772217 
	C255.900101,550.637634 257.469452,550.154785 259.052032,549.829468 
	C258.942871,549.368286 258.833710,548.907104 258.724548,548.445923 
	C249.474213,548.445923 240.223877,548.445923 229.733398,548.445923 
	C231.338608,549.750366 231.965973,550.702209 232.632965,550.730774 
	C237.131577,550.923767 238.873520,553.900757 240.118210,557.603516 
	C241.283585,561.070251 242.708603,564.451050 243.828384,567.931091 
	C244.259460,569.270874 244.666443,570.959656 244.229355,572.184265 
	C240.181763,583.524597 235.947189,594.798218 231.239700,607.515503 
	C225.203278,589.465027 219.573441,572.824402 214.111252,556.128967 
	C213.051971,552.891235 214.767792,551.152588 218.124359,550.754822 
	C219.305222,550.614868 220.409561,549.829041 221.548843,549.338135 
	C221.401672,549.024963 221.254501,548.711853 221.107330,548.398743 
	C211.948425,548.398743 202.789505,548.398743 193.162827,548.398743 
	C193.699005,549.460693 193.963852,550.485962 194.258179,550.494446 
	C200.488022,550.675110 201.899841,555.458374 203.566727,560.045166 
	C210.949478,580.360535 218.342087,600.672241 225.748871,620.978821 
	C226.347702,622.620605 227.080643,624.213501 227.751251,625.829102 
	C228.149429,625.832581 228.547592,625.836121 228.945755,625.839600 
	C234.783127,609.822937 240.620499,593.806213 246.922668,576.514221 
	C253.193024,593.881836 258.975342,609.897705 264.757690,625.913574 
	C265.235168,625.841553 265.712646,625.769470 266.190125,625.697388 
	C270.890137,612.762085 275.590118,599.826843 280.621399,586.183472 
M460.872437,597.092041 
	C460.801453,598.634888 460.730469,600.177734 460.607941,602.840637 
	C458.572815,600.377686 457.301422,598.865967 456.058807,597.331055 
	C443.597260,581.937744 431.143799,566.537781 418.674805,551.150513 
	C417.847382,550.129456 416.946869,548.391479 416.021637,548.351746 
	C410.077454,548.095947 404.116852,548.221130 398.161652,548.221130 
	C398.100616,548.766968 398.039581,549.312805 397.978577,549.858643 
	C399.047089,550.177979 400.434479,550.179688 401.126373,550.874207 
	C403.530060,553.286987 407.570038,555.885742 407.646271,558.510742 
	C408.201874,577.645447 407.950653,596.803894 407.931213,615.954834 
	C407.928009,619.113831 406.445312,620.890381 403.120331,621.089722 
	C401.807434,621.168396 400.525330,621.761658 399.229218,622.120667 
	C399.324158,622.517700 399.419128,622.914795 399.514069,623.311890 
	C406.679657,623.311890 413.845215,623.311890 422.132751,623.311890 
	C420.729706,622.070190 420.171478,621.173767 419.695465,621.215515 
	C413.144501,621.789856 412.525513,617.856812 412.626099,612.701294 
	C412.840454,601.714355 412.692444,590.720459 412.692780,579.729370 
	C412.692932,574.320007 412.692780,568.910645 412.692780,562.024658 
	C430.513611,583.843994 447.370392,604.483032 465.195526,626.307617 
	C465.350861,622.959839 465.502350,621.195190 465.504028,619.430420 
	C465.523315,598.780579 465.530853,578.130737 465.513214,557.480896 
	C465.509857,553.562988 466.260345,550.487061 471.239868,550.696167 
	C472.229279,550.737671 473.260468,549.783936 474.272369,549.289124 
	C474.132629,548.988098 473.992920,548.687134 473.853180,548.386108 
	C466.689240,548.386108 459.525330,548.386108 452.361420,548.386108 
	C452.829620,549.804871 453.680450,550.754944 454.448303,550.692017 
	C460.182983,550.222351 460.978821,553.558655 460.923126,558.212952 
	C460.771759,570.867493 460.870758,583.524963 460.872437,597.092041 
M364.726746,615.200195 
	C368.052429,620.881531 360.665314,620.098755 359.030884,623.377563 
	C368.125275,623.377563 376.390442,623.377563 384.874176,623.377563 
	C384.639435,622.455688 384.610596,621.648499 384.394348,621.594666 
	C379.119934,620.282593 377.513245,615.944153 375.755707,611.560730 
	C367.530731,591.047302 359.213470,570.570862 350.909973,550.089050 
	C350.261292,548.488892 349.465332,546.948547 348.270203,544.372375 
	C347.126984,546.850098 346.410492,548.283813 345.793152,549.758911 
	C337.261658,570.145325 328.776062,590.551025 320.196716,610.917236 
	C318.360199,615.276917 317.078583,620.237671 311.320740,621.399048 
	C311.103058,621.442993 311.152588,622.811646 311.088867,623.450256 
	C317.542755,623.450256 323.717743,623.450256 329.892700,623.450256 
	C330.351776,622.863770 330.810852,622.277222 331.269928,621.690735 
	C330.354889,621.467651 329.450592,621.123718 328.523071,621.041321 
	C322.945526,620.545837 323.034119,617.440186 324.799530,613.346008 
	C326.444305,609.531555 327.644379,605.500610 329.569977,601.843872 
	C330.361053,600.341492 332.495605,598.697510 334.094910,598.616577 
	C341.067688,598.263550 348.078766,598.258057 355.050995,598.614319 
	C356.630005,598.695068 358.761841,600.406311 359.507935,601.923401 
	C361.479614,605.932678 362.830963,610.246887 364.726746,615.200195 
M508.257935,547.294983 
	C500.169342,549.483276 494.617371,554.168152 493.458496,562.857971 
	C492.340515,571.240967 495.960754,577.375549 503.023590,581.640442 
	C507.578979,584.391296 512.221863,586.997131 516.780396,589.742798 
	C520.621155,592.056030 524.690002,594.117249 528.139709,596.926331 
	C535.117004,602.607910 534.255127,612.508545 526.520020,617.097229 
	C519.755981,621.109802 512.856079,620.967651 506.257416,616.613403 
	C501.048828,613.176331 497.867798,608.198059 496.004547,602.286621 
	C495.603607,601.014465 494.742310,599.887390 494.093018,598.693481 
	C493.710083,598.844971 493.327118,598.996460 492.944183,599.148010 
	C492.944183,607.455017 492.944183,615.762024 492.944183,622.673401 
	C496.450592,622.673401 499.546295,622.416016 502.583344,622.728577 
	C508.352020,623.322449 514.082031,624.841736 519.837341,624.890991 
	C529.228638,624.971375 537.786560,618.112244 540.392395,609.427917 
	C543.087646,600.445557 539.997559,591.392578 531.937744,585.712830 
	C528.419312,583.233337 524.500488,581.324463 520.778992,579.130066 
	C516.341431,576.513489 511.736145,574.130066 507.539032,571.169922 
	C502.317047,567.486877 500.765076,563.276611 502.222809,558.837463 
	C503.657318,554.469116 508.368805,551.226379 513.879333,550.814697 
	C522.737366,550.152954 530.150696,555.140259 533.534546,563.933594 
	C534.033569,565.230286 534.919617,566.378052 535.626587,567.594788 
	C535.999023,567.389160 536.371460,567.183594 536.743896,566.978027 
	C536.743896,560.934265 536.743896,554.890503 536.743896,549.917358 
	C532.351013,549.360352 528.390198,548.768677 524.409729,548.375793 
	C519.317871,547.873169 514.210083,547.530823 508.257935,547.294983 
M158.622849,579.908142 
	C153.485489,576.849548 148.192459,574.019287 143.261520,570.657898 
	C139.516510,568.105042 137.025284,564.392456 138.450150,559.536499 
	C139.964752,554.374817 143.863373,551.692993 149.053284,550.953064 
	C158.222717,549.645813 166.403931,554.739014 169.838593,563.709290 
	C170.346771,565.036499 171.049850,566.289062 171.662766,567.576172 
	C172.059464,567.449707 172.456146,567.323181 172.852829,567.196716 
	C172.852829,561.026672 172.852829,554.856628 172.852829,549.760132 
	C168.841187,549.317444 164.909927,548.886169 160.979279,548.449402 
	C156.383026,547.938660 151.755966,546.810059 147.198120,547.042908 
	C138.828903,547.470398 132.107849,553.127075 130.249588,560.293030 
	C128.131851,568.459534 130.792587,575.540955 138.110107,580.737244 
	C140.817429,582.659729 143.686356,584.366455 146.552948,586.050110 
	C151.854843,589.164124 157.618942,591.669983 162.391876,595.440125 
	C165.364731,597.788452 168.189194,601.777893 168.777832,605.404602 
	C170.240646,614.417297 160.255249,621.721191 150.078064,619.625549 
	C140.597824,617.673401 135.428787,611.119873 132.400009,602.417114 
	C131.945114,601.109985 131.132736,599.927246 130.485733,598.687012 
	C130.048019,598.877563 129.610321,599.068054 129.172607,599.258606 
	C129.172607,607.510803 129.172607,615.763062 129.172607,623.016296 
	C133.097122,623.016296 136.856674,622.765259 140.568909,623.077209 
	C145.682312,623.506897 150.754898,624.873474 155.853989,624.923706 
	C165.216843,625.015991 174.120865,618.228149 176.686356,609.799866 
	C179.498444,600.561462 176.403137,591.452393 168.247665,585.635803 
	C165.415909,583.616089 162.282516,582.019287 158.622849,579.908142 
M443.907410,133.462250 
	C439.632294,125.062332 435.996979,116.491493 438.209808,106.162712 
	C431.965454,107.535133 429.480988,111.179329 427.598816,114.985611 
	C425.712524,118.800148 423.225586,120.313942 418.991058,120.193649 
	C416.758820,120.130241 412.857697,121.111244 412.586578,122.285057 
	C412.092804,124.423050 413.529816,127.152542 414.573975,129.447433 
	C415.236237,130.902924 416.556763,132.107437 417.732117,133.273224 
	C427.143860,142.608307 438.053558,149.817291 449.885864,155.675751 
	C451.242157,156.347275 452.816437,156.578491 454.289642,157.013885 
	C454.734924,156.600632 455.180206,156.187378 455.625488,155.774124 
	C451.821716,148.564377 448.017944,141.354630 443.907410,133.462250 
z"/>
<path fill="#FDFDFD" opacity="1.000000" stroke="none" 
	d="
M411.083374,100.834229 
	C411.241791,102.517990 411.289734,104.220924 411.578003,105.882149 
	C412.746796,112.616882 411.109070,118.733055 407.541748,124.862267 
	C400.387726,120.247536 392.749725,117.346565 384.155243,117.969109 
	C382.171783,118.112785 380.169769,118.319550 378.234222,118.754913 
	C361.012695,122.628563 353.250946,135.996643 358.424042,152.971207 
	C360.929260,161.191528 365.586670,167.990753 372.732727,172.870422 
	C397.484314,189.772049 422.382874,206.460449 447.029266,223.513626 
	C475.689850,243.344315 492.755280,271.008087 499.849854,304.793640 
	C505.321411,330.850220 505.529816,356.945679 494.715576,381.853119 
	C478.359528,419.524597 448.212982,439.416321 408.584106,445.893829 
	C385.825500,449.613800 363.429901,446.927277 341.513763,439.970703 
	C339.864716,439.447296 338.253418,438.804932 336.690552,437.795837 
	C354.102020,434.781708 370.750916,429.956451 386.371246,421.978455 
	C414.565216,407.578552 434.375854,386.203644 440.440674,354.320404 
	C445.423889,328.123260 444.541809,302.495575 428.921326,279.339844 
	C419.548553,265.445648 405.875946,256.614380 392.140015,247.626999 
	C372.102753,234.516663 351.653534,221.765732 333.063080,206.774414 
	C300.926331,180.859436 298.315033,141.436310 309.209686,110.996773 
	C315.571686,93.221474 327.780609,82.271919 347.677277,74.709984 
	C344.690399,70.469757 340.862854,66.461823 338.787872,61.691547 
	C336.691406,56.871933 336.331757,51.296829 335.821716,45.823223 
	C347.205872,60.275986 362.974640,64.715164 379.758514,66.973244 
	C392.008575,68.621330 404.139709,70.731689 415.297089,76.365845 
	C423.894012,80.707054 430.702942,86.696640 433.335846,96.566780 
	C434.206543,99.830864 433.204803,101.103333 430.342224,102.020164 
	C423.997925,104.052132 417.861908,103.366898 411.297302,100.749519 
	C410.632446,100.641685 410.468811,100.744110 410.305176,100.846527 
	C410.374695,100.942009 410.476196,101.129272 410.508484,101.118027 
	C410.708740,101.048218 410.893494,100.933823 411.083374,100.834229 
z"/>
<path fill="#FCFCFD" opacity="1.000000" stroke="none" 
	d="
M599.490479,430.484528 
	C611.336548,417.886993 620.044861,403.630127 628.035095,388.475281 
	C627.863647,390.129791 627.766663,391.796478 627.499756,393.435425 
	C627.232910,395.073456 626.848572,396.697632 626.426147,398.304291 
	C613.017151,449.303772 580.656250,482.920502 531.615295,500.842407 
	C499.995361,512.397827 466.976440,515.920898 433.721832,513.182800 
	C402.086365,510.577942 370.647156,505.552002 339.137085,501.471191 
	C292.588837,495.442780 246.102646,488.897888 199.491470,483.410065 
	C179.179550,481.018616 158.578918,480.109741 138.357162,485.069702 
	C132.081726,486.608917 126.026024,489.040192 119.860771,491.035339 
	C118.430252,491.498260 116.963051,491.847839 115.512733,492.249542 
	C115.337639,491.819672 115.162552,491.389801 114.987457,490.959930 
	C121.793869,487.265533 128.472656,483.309265 135.427704,479.919830 
	C175.976089,460.159149 218.861725,450.086761 263.931580,448.625977 
	C299.222595,447.482147 333.491852,453.527069 367.699310,461.271423 
	C406.098175,469.964722 444.951019,475.815338 484.491486,474.751312 
	C514.767334,473.936615 544.325378,469.150116 570.641907,453.076447 
	C580.897705,446.812408 589.751770,438.253418 599.490479,430.484528 
z"/>
<path fill="#FCFDFD" opacity="1.000000" stroke="none" 
	d="
M206.612747,445.560028 
	C199.771011,447.886200 193.368286,450.263031 186.823944,452.148285 
	C184.501373,452.817291 181.550583,453.029144 179.369583,452.191681 
	C162.804092,445.831238 151.778976,433.491882 143.741821,418.141693 
	C133.466705,398.517212 128.917358,377.225342 126.054443,355.530487 
	C120.653122,314.599854 121.291359,273.437622 121.674248,232.285141 
	C121.844536,213.983475 122.701866,195.612854 118.171135,177.589432 
	C108.949806,140.906586 85.511810,118.334366 49.480228,108.217018 
	C47.909870,107.776077 46.329288,107.371529 44.075016,106.768555 
	C89.251083,103.331268 121.976555,121.670586 139.499069,156.854736 
	C150.117249,178.175415 155.290863,201.051071 157.851181,224.460510 
	C161.037460,253.593262 162.882812,282.871674 165.996933,312.013519 
	C172.342239,371.392883 201.753906,414.348022 257.328949,438.247925 
	C258.277740,438.655945 259.121765,439.307587 259.923126,440.300262 
	C241.815948,438.160797 224.311234,440.828094 206.612747,445.560028 
z"/>
<path fill="#FCFCFD" opacity="1.000000" stroke="none" 
	d="
M266.814941,324.212616 
	C261.346069,297.927643 260.047241,271.664398 258.766907,245.362976 
	C257.991577,229.435211 257.436249,213.308990 254.447372,197.719543 
	C249.638107,172.635300 237.435165,151.314240 216.049850,135.868484 
	C236.014709,134.982651 260.189117,147.550476 274.018005,165.980988 
	C286.750092,182.949722 293.372711,202.483429 295.776886,223.201462 
	C298.038849,242.694199 298.470032,262.392761 300.058899,281.972198 
	C301.477295,299.450958 304.422699,316.683960 311.240601,332.984192 
	C316.285919,345.046631 323.124176,355.856689 335.384949,361.838684 
	C361.826569,374.739410 392.764465,358.555115 397.933258,329.176605 
	C398.728455,324.657013 398.945129,320.035645 399.515381,314.648773 
	C406.959839,323.155884 411.152435,332.449066 411.995270,343.103363 
	C414.020172,368.700714 398.968811,391.763397 373.307159,400.923950 
	C340.985016,412.462097 297.411957,407.909119 277.308289,358.425049 
	C272.888184,347.545197 270.317688,335.913910 266.814941,324.212616 
z"/>
<path fill="#FCFDFD" opacity="1.000000" stroke="none" 
	d="
M237.017258,294.809204 
	C240.113647,320.344025 245.320892,344.862854 257.077820,367.502869 
	C271.526184,395.325623 292.612549,415.065308 324.293274,421.475616 
	C328.354919,422.297455 332.506531,422.674530 336.774139,424.291931 
	C331.024719,425.043610 325.295074,426.039886 319.522614,426.506134 
	C288.825439,428.985779 260.306549,423.939880 237.209518,401.520050 
	C222.394897,387.139740 213.470963,369.179718 206.944168,349.887695 
	C198.514038,324.969727 194.572525,299.166962 192.009064,273.108459 
	C189.613708,248.758713 187.858871,224.330963 184.797256,200.066849 
	C182.688965,183.357849 177.508774,167.273438 170.037216,152.064758 
	C162.237473,136.188065 152.110428,122.291855 136.521378,112.450356 
	C140.836105,113.082298 145.220551,113.413345 149.454361,114.394432 
	C179.665970,121.395233 199.719437,140.289734 212.225861,168.093460 
	C222.082443,190.006134 227.572342,213.128067 230.837189,236.748062 
	C233.480148,255.868881 234.981766,275.147461 237.017258,294.809204 
z"/>
<path fill="#F9FAFB" opacity="1.000000" stroke="none" 
	d="
M580.653320,342.422424 
	C580.705383,331.908081 580.705383,321.851074 580.705383,311.794067 
	C581.356140,311.665863 582.006897,311.537659 582.657654,311.409454 
	C585.591187,321.490997 589.055542,331.453705 591.343994,341.679596 
	C595.664124,360.984009 595.576416,380.356842 589.806641,399.448273 
	C580.902649,428.910614 561.000488,446.956146 531.610901,454.966187 
	C506.663544,461.765533 481.312164,462.151581 455.792023,459.521881 
	C454.479736,459.386658 453.197479,458.959930 451.901245,458.668884 
	C451.923676,458.261169 451.946136,457.853455 451.968567,457.445740 
	C457.243988,456.630219 462.549835,455.973877 467.789917,454.973236 
	C500.595673,448.708618 530.242126,436.242279 552.871948,410.569794 
	C569.895264,391.257660 577.993225,368.161896 580.653320,342.422424 
z"/>
<path fill="#F0F3F5" opacity="1.000000" stroke="none" 
	d="
M280.455750,586.537476 
	C275.590118,599.826843 270.890137,612.762085 266.190125,625.697388 
	C265.712646,625.769470 265.235168,625.841553 264.757690,625.913574 
	C258.975342,609.897705 253.193024,593.881836 246.922668,576.514221 
	C240.620499,593.806213 234.783127,609.822937 228.945755,625.839600 
	C228.547592,625.836121 228.149429,625.832581 227.751251,625.829102 
	C227.080643,624.213501 226.347702,622.620605 225.748871,620.978821 
	C218.342087,600.672241 210.949478,580.360535 203.566727,560.045166 
	C201.899841,555.458374 200.488022,550.675110 194.258179,550.494446 
	C193.963852,550.485962 193.699005,549.460693 193.162827,548.398743 
	C202.789505,548.398743 211.948425,548.398743 221.107330,548.398743 
	C221.254501,548.711853 221.401672,549.024963 221.548843,549.338135 
	C220.409561,549.829041 219.305222,550.614868 218.124359,550.754822 
	C214.767792,551.152588 213.051971,552.891235 214.111252,556.128967 
	C219.573441,572.824402 225.203278,589.465027 231.239700,607.515503 
	C235.947189,594.798218 240.181763,583.524597 244.229355,572.184265 
	C244.666443,570.959656 244.259460,569.270874 243.828384,567.931091 
	C242.708603,564.451050 241.283585,561.070251 240.118210,557.603516 
	C238.873520,553.900757 237.131577,550.923767 232.632965,550.730774 
	C231.965973,550.702209 231.338608,549.750366 229.733398,548.445923 
	C240.223877,548.445923 249.474213,548.445923 258.724548,548.445923 
	C258.833710,548.907104 258.942871,549.368286 259.052032,549.829468 
	C257.469452,550.154785 255.900101,550.637634 254.301453,550.772217 
	C251.102646,551.041321 249.551865,552.668274 250.570953,555.732422 
	C256.156311,572.526062 261.875854,589.275146 268.627014,605.974854 
	C274.357483,589.572876 280.148987,573.191711 285.766998,556.751282 
	C286.891754,553.459839 286.265900,550.751038 281.796814,550.716431 
	C280.832977,550.708984 279.875214,549.923706 279.275360,548.360046 
	C286.069214,548.360046 292.863068,548.360046 300.261902,548.360046 
	C299.580505,549.402710 299.193909,550.523682 298.791718,550.529297 
	C293.771027,550.599243 292.170441,553.984131 290.777222,558.036743 
	C287.534882,567.468140 284.023651,576.807068 280.455750,586.537476 
z"/>
<path fill="#F0F3F5" opacity="1.000000" stroke="none" 
	d="
M460.871490,596.636658 
	C460.870758,583.524963 460.771759,570.867493 460.923126,558.212952 
	C460.978821,553.558655 460.182983,550.222351 454.448303,550.692017 
	C453.680450,550.754944 452.829620,549.804871 452.361420,548.386108 
	C459.525330,548.386108 466.689240,548.386108 473.853180,548.386108 
	C473.992920,548.687134 474.132629,548.988098 474.272369,549.289124 
	C473.260468,549.783936 472.229279,550.737671 471.239868,550.696167 
	C466.260345,550.487061 465.509857,553.562988 465.513214,557.480896 
	C465.530853,578.130737 465.523315,598.780579 465.504028,619.430420 
	C465.502350,621.195190 465.350861,622.959839 465.195526,626.307617 
	C447.370392,604.483032 430.513611,583.843994 412.692780,562.024658 
	C412.692780,568.910645 412.692932,574.320007 412.692780,579.729370 
	C412.692444,590.720459 412.840454,601.714355 412.626099,612.701294 
	C412.525513,617.856812 413.144501,621.789856 419.695465,621.215515 
	C420.171478,621.173767 420.729706,622.070190 422.132751,623.311890 
	C413.845215,623.311890 406.679657,623.311890 399.514069,623.311890 
	C399.419128,622.914795 399.324158,622.517700 399.229218,622.120667 
	C400.525330,621.761658 401.807434,621.168396 403.120331,621.089722 
	C406.445312,620.890381 407.928009,619.113831 407.931213,615.954834 
	C407.950653,596.803894 408.201874,577.645447 407.646271,558.510742 
	C407.570038,555.885742 403.530060,553.286987 401.126373,550.874207 
	C400.434479,550.179688 399.047089,550.177979 397.978577,549.858643 
	C398.039581,549.312805 398.100616,548.766968 398.161652,548.221130 
	C404.116852,548.221130 410.077454,548.095947 416.021637,548.351746 
	C416.946869,548.391479 417.847382,550.129456 418.674805,551.150513 
	C431.143799,566.537781 443.597260,581.937744 456.058807,597.331055 
	C457.301422,598.865967 458.572815,600.377686 460.607941,602.840637 
	C460.730469,600.177734 460.801453,598.634888 460.871490,596.636658 
z"/>
<path fill="#F1F4F5" opacity="1.000000" stroke="none" 
	d="
M364.577972,614.819946 
	C362.830963,610.246887 361.479614,605.932678 359.507935,601.923401 
	C358.761841,600.406311 356.630005,598.695068 355.050995,598.614319 
	C348.078766,598.258057 341.067688,598.263550 334.094910,598.616577 
	C332.495605,598.697510 330.361053,600.341492 329.569977,601.843872 
	C327.644379,605.500610 326.444305,609.531555 324.799530,613.346008 
	C323.034119,617.440186 322.945526,620.545837 328.523071,621.041321 
	C329.450592,621.123718 330.354889,621.467651 331.269928,621.690735 
	C330.810852,622.277222 330.351776,622.863770 329.892700,623.450256 
	C323.717743,623.450256 317.542755,623.450256 311.088867,623.450256 
	C311.152588,622.811646 311.103058,621.442993 311.320740,621.399048 
	C317.078583,620.237671 318.360199,615.276917 320.196716,610.917236 
	C328.776062,590.551025 337.261658,570.145325 345.793152,549.758911 
	C346.410492,548.283813 347.126984,546.850098 348.270203,544.372375 
	C349.465332,546.948547 350.261292,548.488892 350.909973,550.089050 
	C359.213470,570.570862 367.530731,591.047302 375.755707,611.560730 
	C377.513245,615.944153 379.119934,620.282593 384.394348,621.594666 
	C384.610596,621.648499 384.639435,622.455688 384.874176,623.377563 
	C376.390442,623.377563 368.125275,623.377563 359.030884,623.377563 
	C360.665314,620.098755 368.052429,620.881531 364.577972,614.819946 
M352.378174,583.157654 
	C349.995544,577.075256 347.612915,570.992859 344.846954,563.931885 
	C340.524109,574.655151 336.667999,584.220581 332.699463,594.064819 
	C340.933899,594.064819 348.440125,594.064819 356.424988,594.064819 
	C355.069946,590.345154 353.888916,587.103210 352.378174,583.157654 
z"/>
<path fill="#F3F5F7" opacity="1.000000" stroke="none" 
	d="
M508.683533,547.207214 
	C514.210083,547.530823 519.317871,547.873169 524.409729,548.375793 
	C528.390198,548.768677 532.351013,549.360352 536.743896,549.917358 
	C536.743896,554.890503 536.743896,560.934265 536.743896,566.978027 
	C536.371460,567.183594 535.999023,567.389160 535.626587,567.594788 
	C534.919617,566.378052 534.033569,565.230286 533.534546,563.933594 
	C530.150696,555.140259 522.737366,550.152954 513.879333,550.814697 
	C508.368805,551.226379 503.657318,554.469116 502.222809,558.837463 
	C500.765076,563.276611 502.317047,567.486877 507.539032,571.169922 
	C511.736145,574.130066 516.341431,576.513489 520.778992,579.130066 
	C524.500488,581.324463 528.419312,583.233337 531.937744,585.712830 
	C539.997559,591.392578 543.087646,600.445557 540.392395,609.427917 
	C537.786560,618.112244 529.228638,624.971375 519.837341,624.890991 
	C514.082031,624.841736 508.352020,623.322449 502.583344,622.728577 
	C499.546295,622.416016 496.450592,622.673401 492.944183,622.673401 
	C492.944183,615.762024 492.944183,607.455017 492.944183,599.148010 
	C493.327118,598.996460 493.710083,598.844971 494.093018,598.693481 
	C494.742310,599.887390 495.603607,601.014465 496.004547,602.286621 
	C497.867798,608.198059 501.048828,613.176331 506.257416,616.613403 
	C512.856079,620.967651 519.755981,621.109802 526.520020,617.097229 
	C534.255127,612.508545 535.117004,602.607910 528.139709,596.926331 
	C524.690002,594.117249 520.621155,592.056030 516.780396,589.742798 
	C512.221863,586.997131 507.578979,584.391296 503.023590,581.640442 
	C495.960754,577.375549 492.340515,571.240967 493.458496,562.857971 
	C494.617371,554.168152 500.169342,549.483276 508.683533,547.207214 
z"/>
<path fill="#F3F6F7" opacity="1.000000" stroke="none" 
	d="
M158.954865,580.068726 
	C162.282516,582.019287 165.415909,583.616089 168.247665,585.635803 
	C176.403137,591.452393 179.498444,600.561462 176.686356,609.799866 
	C174.120865,618.228149 165.216843,625.015991 155.853989,624.923706 
	C150.754898,624.873474 145.682312,623.506897 140.568909,623.077209 
	C136.856674,622.765259 133.097122,623.016296 129.172607,623.016296 
	C129.172607,615.763062 129.172607,607.510803 129.172607,599.258606 
	C129.610321,599.068054 130.048019,598.877563 130.485733,598.687012 
	C131.132736,599.927246 131.945114,601.109985 132.400009,602.417114 
	C135.428787,611.119873 140.597824,617.673401 150.078064,619.625549 
	C160.255249,621.721191 170.240646,614.417297 168.777832,605.404602 
	C168.189194,601.777893 165.364731,597.788452 162.391876,595.440125 
	C157.618942,591.669983 151.854843,589.164124 146.552948,586.050110 
	C143.686356,584.366455 140.817429,582.659729 138.110107,580.737244 
	C130.792587,575.540955 128.131851,568.459534 130.249588,560.293030 
	C132.107849,553.127075 138.828903,547.470398 147.198120,547.042908 
	C151.755966,546.810059 156.383026,547.938660 160.979279,548.449402 
	C164.909927,548.886169 168.841187,549.317444 172.852829,549.760132 
	C172.852829,554.856628 172.852829,561.026672 172.852829,567.196716 
	C172.456146,567.323181 172.059464,567.449707 171.662766,567.576172 
	C171.049850,566.289062 170.346771,565.036499 169.838593,563.709290 
	C166.403931,554.739014 158.222717,549.645813 149.053284,550.953064 
	C143.863373,551.692993 139.964752,554.374817 138.450150,559.536499 
	C137.025284,564.392456 139.516510,568.105042 143.261520,570.657898 
	C148.192459,574.019287 153.485489,576.849548 158.954865,580.068726 
z"/>
<path fill="#F7F9F9" opacity="1.000000" stroke="none" 
	d="
M444.060791,133.803558 
	C448.017944,141.354630 451.821716,148.564377 455.625488,155.774124 
	C455.180206,156.187378 454.734924,156.600632 454.289642,157.013885 
	C452.816437,156.578491 451.242157,156.347275 449.885864,155.675751 
	C438.053558,149.817291 427.143860,142.608307 417.732117,133.273224 
	C416.556763,132.107437 415.236237,130.902924 414.573975,129.447433 
	C413.529816,127.152542 412.092804,124.423050 412.586578,122.285057 
	C412.857697,121.111244 416.758820,120.130241 418.991058,120.193649 
	C423.225586,120.313942 425.712524,118.800148 427.598816,114.985611 
	C429.480988,111.179329 431.965454,107.535133 438.209808,106.162712 
	C435.996979,116.491493 439.632294,125.062332 444.060791,133.803558 
z"/>
<path fill="#1A2A36" opacity="1.000000" stroke="none" 
	d="
M411.068054,100.871490 
	C410.893494,100.933823 410.708740,101.048218 410.508484,101.118027 
	C410.476196,101.129272 410.374695,100.942009 410.305176,100.846527 
	C410.468811,100.744110 410.632446,100.641685 410.903992,100.758766 
	C411.011963,100.978279 411.052704,100.908752 411.068054,100.871490 
z"/>
<path fill="#202E39" opacity="1.000000" stroke="none" 
	d="
M352.543030,583.509460 
	C353.888916,587.103210 355.069946,590.345154 356.424988,594.064819 
	C348.440125,594.064819 340.933899,594.064819 332.699463,594.064819 
	C336.667999,584.220581 340.524109,574.655151 344.846954,563.931885 
	C347.612915,570.992859 349.995544,577.075256 352.543030,583.509460 
z"/>
</svg>